<?xml version="1.0" encoding="UTF-8"?>
<svg version="1.1" viewBox="0 0 300 300" xmlns="http://www.w3.org/2000/svg">
 <g transform="translate(150 150)">
  <path d="m124.66 0c0 68.85-55.814 124.66-124.66 124.66s-124.66-55.814-124.66-124.66 55.814-124.66 124.66-124.66 124.66 55.814 124.66 124.66z" fill="#fff" stroke="#000" stroke-linecap="square" stroke-width="20"/>
  <path d="m-55.773-51.677h110.21v15.241h-14.003v62.584q-0.1905 10.574 7.1443 10.383 5.1439 0 8.1921-0.9526v15.146q-4.2866 0.9525-14.193 0.9525-6.0965 0-9.7162-2.0956-3.715-1.7146-5.7154-5.0486-1.9052-3.5246-2.4767-8.0016-0.8573-4.2866-0.8573-9.621v-63.346h-46.962v86.208h-17.527v-86.208h-14.098z"/>
 </g>
</svg>
